<svg width="22" height="30" viewBox="0 0 22 30" fill="none" xmlns="http://www.w3.org/2000/svg">
<path fill-rule="evenodd" clip-rule="evenodd" d="M8.73008 0.215478C7.19424 0.510798 4.85197 1.69208 3.61409 2.79571C2.64644 3.65853 1.46796 5.24847 0.919188 6.432C0.40191 7.54737 0 9.46703 0 10.8223C0 14.6032 2.49158 19.8349 7.21774 25.9778C8.64409 27.8316 10.0504 29.5075 10.4435 29.8221C11.165 30.3996 11.9677 29.6893 14.8438 25.9288C19.8824 19.3401 22.2043 14.2515 21.9859 10.2749C21.6194 3.59888 15.4565 -1.07786 8.73008 0.215478ZM13.4623 5.95228C13.911 6.18153 14.5866 6.68263 14.9634 7.06588C17.6271 9.77457 16.7791 14.2391 13.2991 15.8271C11.9175 16.4576 10.1256 16.4642 8.76762 15.8438C5.25518 14.2391 4.39148 9.78454 7.06582 7.06605C8.29652 5.81515 9.33923 5.42273 11.2594 5.48816C12.3721 5.5261 12.8078 5.61774 13.4623 5.95228Z" fill="#5D91D9"/>
</svg>
