<svg width="30" height="30" viewBox="0 0 30 30" fill="none" xmlns="http://www.w3.org/2000/svg">
<path fill-rule="evenodd" clip-rule="evenodd" d="M6.10231 0.193826C4.76437 0.862468 2.33586 3.49775 0.67376 6.08463C-0.129238 7.33442 -0.150325 7.50842 0.274566 9.37432C1.01724 12.6352 3.20653 16.6672 5.98961 19.8998C6.99887 21.0721 8.38958 22.4661 10.0963 24.0164C10.162 24.0761 10.6557 24.4705 11.1934 24.8927C14.6778 27.6294 18.6124 29.5118 21.7664 29.9511C22.6174 30.0696 22.8196 30.0112 23.8849 29.3398C26.2169 27.8699 29.0284 25.2901 29.6895 24.0136L30 23.4139L29.8354 22.8468C29.6197 22.1042 29.2887 21.7847 27.5175 20.6096C24.8915 18.8676 23.0268 17.8662 22.0129 17.6536C20.9961 17.4404 20.6347 17.6597 19.0705 19.4394L18.4235 20.1755L18.0434 20.0435C15.1983 19.0555 12.404 16.6317 10.7648 13.7299C10.4192 13.1179 9.86591 11.8243 9.86591 11.628C9.86591 11.5592 10.3568 11.0725 10.9569 10.5465C12.5937 9.11163 12.7226 8.64293 11.9582 6.90852C11.2668 5.33978 8.84743 1.44214 8.08994 0.676477C7.76284 0.345937 6.99986 -0.00905451 6.63627 0.000176256C6.55142 0.00233665 6.31122 0.0894398 6.10231 0.193826Z" fill="#5D91D9"/>
</svg>
