<svg width="35" height="33" viewBox="0 0 35 33" fill="none" xmlns="http://www.w3.org/2000/svg">
<path fill-rule="evenodd" clip-rule="evenodd" d="M12.688 4.59832C8.79531 7.12725 5.51921 9.27757 5.40778 9.37685C4.58694 10.1079 4.70683 11.5243 5.64411 12.167C5.97814 12.396 6.07809 12.4204 6.68453 12.4204H7.35535L8.48959 11.6832L9.62392 10.9461V16.6725V22.399H9.06073C8.54319 22.399 8.49106 22.3823 8.41752 22.1936C8.3735 22.0806 8.26052 21.948 8.16644 21.8989C7.93261 21.7768 2.94285 21.7768 2.70903 21.8989C2.61494 21.948 2.50239 22.0795 2.45889 22.1911C2.38121 22.3905 2.35808 22.3946 1.18991 22.4177L0 22.4411V22.9884V23.5358L1.18681 23.5592L2.37361 23.5826V26.5251V29.4677L1.18681 29.4911L0 29.5145V30.0619V30.6092L1.18991 30.6326C2.35808 30.6557 2.38121 30.6598 2.45889 30.8591C2.50239 30.9708 2.61494 31.1023 2.70903 31.1514C2.81873 31.2087 3.80538 31.2408 5.45603 31.2408C7.64769 31.2408 8.06044 31.2212 8.22366 31.1097C8.32922 31.0376 8.41614 30.9145 8.41683 30.836C8.42011 30.4851 8.5526 30.4383 8.99245 30.6323C10.0891 31.1161 13.196 32.3439 13.8101 32.536C15.2833 32.997 16.9823 33.1209 18.5142 32.8789C19.7851 32.6782 19.5833 32.7476 27.6548 29.7354C30.6109 28.6322 30.7916 28.5301 31.1991 27.7342C31.6221 26.9078 31.3538 25.7602 30.5991 25.1685L30.2528 24.897V17.9215V10.9461L31.3871 11.6832L32.5213 12.4204H33.1911C33.8054 12.4204 33.8921 12.3984 34.236 12.1553C34.7483 11.7933 35 11.3063 35 10.6775C35 10.1392 34.8158 9.68732 34.4689 9.37475C34.3575 9.27429 33.3607 8.6066 32.2538 7.89101L30.2412 6.58992L30.2497 4.53584C30.2584 2.40581 30.2073 2.00886 29.9042 1.85055C29.8167 1.80491 29.0006 1.76811 28.0766 1.76811C25.9406 1.76811 26.0234 1.72373 26.0234 2.86761C26.0234 3.48165 25.9947 3.70471 25.9155 3.70429C25.8562 3.70395 24.5266 2.8703 22.961 1.85172C21.3952 0.83315 20.0358 -0.00016839 19.94 2.55233e-08C19.8441 8.42331e-05 16.5808 2.0694 12.688 4.59832ZM26.7594 5.72342C30.4135 8.09808 33.4906 10.1188 33.5974 10.2139C34.0084 10.5795 33.7397 11.2836 33.1891 11.2836C32.9934 11.2836 31.4104 10.2926 26.5646 7.13634C21.6846 3.95784 20.1368 2.9892 19.9383 2.98962C19.7408 2.98996 18.1704 3.97291 13.3125 7.13685C8.46154 10.2963 6.88425 11.2836 6.68798 11.2836C6.13704 11.2836 5.86809 10.5798 6.27928 10.2138C6.71853 9.8229 19.8625 1.34454 19.9838 1.37385C20.0563 1.39136 23.1054 3.34868 26.7594 5.72342ZM29.0444 4.33644C29.0444 5.10062 29.0143 5.72586 28.9774 5.72586C28.9406 5.72586 28.5231 5.46751 28.0495 5.15182L27.1887 4.57786L27.164 3.76239L27.1393 2.94701H28.0918H29.0444V4.33644ZM24.5138 7.22055L29.0012 10.1468V17.3698V24.5929L27.9655 25.0024C27.3958 25.2277 26.3859 25.6396 25.7213 25.9179L24.5129 26.4239L24.4599 26.0292C24.3644 25.3193 23.9491 24.7305 23.3046 24.3911C22.9748 24.2176 22.8235 24.2075 19.9383 24.1655L16.9174 24.1215L15.7953 23.6436C14.1821 22.9565 12.3463 22.4842 11.2854 22.4834L10.9186 22.4832V16.2946V10.106L15.3853 7.20025C17.8421 5.60216 19.8912 4.2945 19.9392 4.29442C19.9871 4.29442 22.0457 5.61109 24.5138 7.22055ZM15.6653 10.0938C14.9283 10.3308 14.2762 10.9279 14.0596 11.564C13.8871 12.0706 13.9285 12.9681 14.1445 13.403C14.5139 14.1471 15.4721 14.7361 16.3132 14.7361C17.1623 14.7361 18.0967 14.1702 18.4743 13.4272C18.7067 12.9701 18.713 11.7987 18.4857 11.3527C18.2747 10.939 17.8064 10.4793 17.3796 10.2668C16.9983 10.077 16.0234 9.9786 15.6653 10.0938ZM19.5068 15.4939L14.6745 20.2088L15.1061 20.6298L15.5377 21.0509L20.3699 16.336L25.2022 11.6212L24.7706 11.2001L24.339 10.7791L19.5068 15.4939ZM16.8498 11.34C17.2492 11.5249 17.4778 11.9028 17.4778 12.3783C17.4778 13.2826 16.6191 13.8066 15.7766 13.4165C14.9392 13.0289 14.9305 11.7433 15.7626 11.3434C16.1355 11.1642 16.4678 11.1631 16.8498 11.34ZM22.7004 17.2663C21.0384 17.8962 20.6573 20.041 22.0022 21.1959C23.1334 22.1673 24.7874 21.9378 25.604 20.6963C25.8401 20.3374 25.8862 20.1791 25.9199 19.6099C25.9565 18.9934 25.9393 18.9038 25.6888 18.4074C25.1335 17.3069 23.8678 16.8237 22.7004 17.2663ZM24.0822 18.3941C24.9369 18.7424 24.9485 20.0972 24.1001 20.49C23.7052 20.6728 23.3734 20.6679 23.0011 20.4737C22.1734 20.042 22.176 18.8285 23.0054 18.4203C23.3692 18.2412 23.6883 18.2335 24.0822 18.3941ZM7.20715 26.5251V30.0619H5.39457H3.582V26.5813C3.582 24.6669 3.60789 23.0754 3.63957 23.0446C3.67116 23.0137 4.48682 22.9884 5.45215 22.9884H7.20715V26.5251ZM11.6954 23.7016C13.1506 23.895 13.9189 24.1249 15.9679 24.9799L16.7448 25.3041L19.7423 25.3462L22.7399 25.3883L22.9791 25.6218C23.3183 25.953 23.3183 26.5079 22.979 26.839L22.7397 27.0725L18.9438 27.0961L15.148 27.1196V27.7066V28.2935H18.9276C21.9651 28.2935 22.8024 28.2693 23.1917 28.1704C23.6548 28.0527 24.0552 27.8944 27.4823 26.474C29.2245 25.7519 29.4457 25.7209 29.873 26.1378C30.4144 26.6659 30.2227 27.4674 29.481 27.7774C29.2646 27.8677 28 28.3461 26.6708 28.8404C25.3416 29.3347 23.283 30.1013 22.0962 30.5441C19.1764 31.6333 18.3845 31.83 16.9174 31.83C15.3158 31.83 14.5086 31.6056 10.9846 30.1806L8.50453 29.1777L8.50314 26.3778L8.50185 23.5779L9.6455 23.5796C10.2745 23.5804 11.197 23.6354 11.6954 23.7016ZM4.82594 27.8193C4.801 27.8827 4.79245 28.1386 4.80704 28.3877L4.83354 28.8408L5.41615 28.8658L5.99877 28.8906V28.2974V27.704H5.43506C5.0375 27.704 4.85788 27.7381 4.82594 27.8193Z" fill="white"/>
</svg>
